<svg xmlns="http://www.w3.org/2000/svg" id="Capa_1" viewBox="0 0 511.999 511.999" width="512" height="512"><path d="M228.935 269.061v41.212c0 14.946 12.116 27.062 27.062 27.062 14.946 0 27.062-12.116 27.062-27.062v-41.212h-54.124z" data-original="#BAB8B9" fill="#bab8b9"/><path d="M249.308 310.273v-41.211h-20.372v41.211c0 14.946 12.116 27.062 27.062 27.062a26.99 26.99 0 0 0 10.186-1.989c-9.896-4.025-16.876-13.732-16.876-25.073z" data-original="#A19FA0" fill="#a19fa0"/><path d="M255.998 59.39c-48.42 0-87.672 39.252-87.672 87.672 0 58.819 43.545 70.366 43.545 97.071l44.127 15.64 44.127-15.64c0-26.704 43.545-38.252 43.545-97.071 0-48.421-39.251-87.672-87.672-87.672z" data-original="#FFCD38" data-old_color="#FFCD38" fill="#e75b21"/><path d="M232.244 244.132c0-26.704-43.545-38.252-43.545-97.071 0-44.972 33.868-82.014 77.486-87.064a88.497 88.497 0 0 0-10.186-.608c-48.42 0-87.672 39.252-87.672 87.672 0 58.819 43.545 70.367 43.545 97.071l44.127 15.64 10.186-3.61-33.941-12.03z" data-original="#EBAF03" data-old_color="#E75B21" fill="#c6501f"/><path d="M503.306 422.874c0-58.75-49.401-106.547-110.123-106.547-60.721 0-110.122 47.796-110.122 106.547h220.245z" data-original="#333E40" fill="#333e40"/><path d="M408.463 317.357a114.197 114.197 0 0 0-15.279-1.03c-60.721 0-110.122 47.796-110.122 106.547h30.558c-.001-53.734 41.327-98.298 94.843-105.517z" data-original="#283234" data-old_color="#0A0A0A" fill="#080808"/><path d="M228.937 422.874c0-58.75-49.401-106.547-110.123-106.547-60.721 0-110.122 47.796-110.122 106.547v39.37c0 13.858 11.234 25.091 25.091 25.091h170.061c13.858 0 25.091-11.234 25.091-25.091v-39.37h.002z" data-original="#C76D5F" fill="#c76d5f"/><path d="M39.25 462.244v-39.37c0-53.734 41.328-98.297 94.843-105.517a114.197 114.197 0 0 0-15.279-1.03c-60.721 0-110.122 47.796-110.122 106.547v39.37c0 13.858 11.234 25.091 25.091 25.091h30.558c-13.857 0-25.091-11.234-25.091-25.091z" data-original="#AF4E42" fill="#af4e42"/><circle cx="211.513" cy="422.877" r="23.24" data-original="#E6B09C" fill="#e6b09c"/><circle cx="485.886" cy="422.877" r="23.24" data-original="#E6B09C" fill="#e6b09c"/><path d="M211.514 422.451c-.187-38.827-40.693-64.742-76.055-48.707a90.997 90.997 0 0 0-7.208 3.667 19.157 19.157 0 0 1-18.876 0 91.17 91.17 0 0 0-7.208-3.667c-35.362-16.035-75.866 9.88-76.055 48.707l-.001.423c0 49.222 41.503 89.125 92.701 89.125s92.701-39.903 92.701-89.125c.002-.141.001-.282.001-.423z" data-original="#FFC4B0" fill="#ffc4b0"/><path d="M46.485 422.874l.001-.423c.131-27.069 19.858-47.855 43.775-52.534-24.511-4.826-49.047 8.365-59.231 30.345-1.443-.406-3.071-.628-4.917-.628-12.835 0-23.24 10.404-23.24 23.239s10.404 23.24 23.24 23.24a20.07 20.07 0 0 0 3.123-.237C39.786 483.949 75.89 512 118.814 512c3.443 0 6.84-.186 10.186-.538-46.404-4.877-82.515-42.676-82.515-88.588z" data-original="#E6B09C" fill="#e6b09c"/><path d="M485.883 422.451c-.187-38.827-40.693-64.742-76.055-48.707a90.997 90.997 0 0 0-7.208 3.667 19.157 19.157 0 0 1-18.876 0 91.027 91.027 0 0 0-7.209-3.667c-35.362-16.035-75.866 9.88-76.055 48.707l-.001.423c0 49.222 41.503 89.125 92.701 89.125s92.701-39.903 92.701-89.125c.003-.141.003-.282.002-.423z" data-original="#FFC4B0" fill="#ffc4b0"/><path d="M320.854 422.874l.001-.423c.131-27.069 19.858-47.855 43.775-52.534-24.511-4.826-49.048 8.365-59.232 30.346-1.441-.407-3.068-.63-4.916-.63-12.835 0-23.24 10.404-23.24 23.239s10.404 23.24 23.24 23.24c1.12 0 2.156-.085 3.123-.237 10.55 38.074 46.654 66.124 89.578 66.124 3.443 0 6.84-.186 10.186-.538-46.404-4.876-82.515-42.675-82.515-88.587z" data-original="#E6B09C" fill="#e6b09c"/><path d="M74.176 434.288a7.64 7.64 0 0 1-7.64-7.64v-7.464a7.64 7.64 0 1 1 15.28 0v7.464a7.64 7.64 0 0 1-7.64 7.64zm91.675 0a7.64 7.64 0 0 1-7.64-7.64v-7.464a7.64 7.64 0 1 1 15.28 0v7.464a7.64 7.64 0 0 1-7.64 7.64zm-47.038 5.516c-7.079 0-13.734-2.969-18.259-8.146a7.64 7.64 0 1 1 11.505-10.055c1.623 1.856 4.084 2.92 6.753 2.92 2.671 0 5.133-1.064 6.754-2.92a7.639 7.639 0 0 1 10.78-.724 7.64 7.64 0 0 1 .725 10.78c-4.523 5.176-11.178 8.145-18.258 8.145zm229.369-5.516a7.64 7.64 0 0 1-7.64-7.64v-7.464a7.64 7.64 0 1 1 15.28 0v7.464a7.64 7.64 0 0 1-7.64 7.64zm91.675 0a7.64 7.64 0 0 1-7.64-7.64v-7.464a7.64 7.64 0 1 1 15.28 0v7.464a7.64 7.64 0 0 1-7.64 7.64zm-46.674 5.516c-7.079 0-13.734-2.969-18.259-8.146a7.64 7.64 0 1 1 11.505-10.055c1.623 1.856 4.084 2.92 6.753 2.92 2.67 0 5.132-1.064 6.755-2.921a7.638 7.638 0 0 1 10.78-.722 7.64 7.64 0 0 1 .723 10.78c-4.524 5.176-11.178 8.144-18.257 8.144z" data-original="#3A484A" class="active-path" data-old_color="#343232" fill="#333131"/><path d="M300.125 275.412l-44.127-15.64-44.127 15.64c-8.638 0-15.64 7.002-15.64 15.64 0 8.638 7.002 15.64 15.64 15.64h88.254c8.638 0 15.64-7.002 15.64-15.64 0-8.638-7.002-15.64-15.64-15.64z" data-original="#A19FA0" fill="#a19fa0"/><path d="M216.603 291.052c0-8.638 7.002-15.64 15.64-15.64l33.941-12.03-10.186-3.61-44.127 15.64c-8.638 0-15.64 7.003-15.64 15.64 0 8.638 7.002 15.64 15.64 15.64h20.372c-8.637 0-15.64-7.002-15.64-15.64z" data-original="#878586" fill="#878586"/><path d="M300.125 244.132h-88.254c-8.638 0-15.64 7.002-15.64 15.64 0 8.638 7.002 15.64 15.64 15.64h88.254c8.638 0 15.64-7.002 15.64-15.64 0-8.637-7.002-15.64-15.64-15.64z" data-original="#BAB8B9" fill="#bab8b9"/><path d="M216.604 259.771c0-8.638 7.002-15.64 15.64-15.64h-20.372c-8.638 0-15.64 7.002-15.64 15.64 0 8.638 7.002 15.64 15.64 15.64h20.372c-8.638.001-15.64-7.002-15.64-15.64z" data-original="#A19FA0" fill="#a19fa0"/><path d="M212.538 155.483a7.64 7.64 0 0 1-7.64-7.64v-7.866c0-4.219 3.419-7.64 7.64-7.64s7.64 3.421 7.64 7.64v7.866a7.641 7.641 0 0 1-7.64 7.64zm86.921 0a7.64 7.64 0 0 1-7.64-7.64v-7.866c0-4.219 3.419-7.64 7.64-7.64s7.64 3.421 7.64 7.64v7.866a7.64 7.64 0 0 1-7.64 7.64zm-43.46 5.813c-7.341 0-14.241-3.077-18.932-8.443a7.64 7.64 0 0 1 .725-10.78 7.64 7.64 0 0 1 10.78.724c1.788 2.045 4.495 3.219 7.427 3.219 2.932 0 5.639-1.173 7.428-3.219a7.638 7.638 0 0 1 10.78-.723 7.64 7.64 0 0 1 .723 10.78c-4.691 5.365-11.59 8.442-18.931 8.442z" data-original="#3A484A" class="active-path" data-old_color="#343232" fill="#333131"/><path d="M255.999 35.949a7.64 7.64 0 0 1-7.64-7.64V7.64c0-4.219 3.419-7.64 7.64-7.64s7.64 3.42 7.64 7.64v20.67a7.64 7.64 0 0 1-7.64 7.639z" data-original="#EBAF03" data-old_color="#E75B21" fill="#c6501f"/><path d="M167.365 72.662a7.62 7.62 0 0 1-5.403-2.238l-14.616-14.616a7.637 7.637 0 0 1 0-10.803 7.639 7.639 0 0 1 10.804 0l14.616 14.616a7.637 7.637 0 0 1 0 10.803 7.613 7.613 0 0 1-5.401 2.238z" data-original="#FFCD38" data-old_color="#FFCD38" fill="#e75b21"/><path d="M130.652 161.296h-20.67a7.64 7.64 0 0 1-7.64-7.64 7.64 7.64 0 0 1 7.64-7.64h20.67a7.64 7.64 0 1 1 0 15.28z" data-original="#EBAF03" data-old_color="#E75B21" fill="#c6501f"/><path d="M344.631 72.662a7.64 7.64 0 0 1-5.403-13.041l14.616-14.616a7.64 7.64 0 1 1 10.804 10.803l-14.615 14.617a7.617 7.617 0 0 1-5.402 2.237z" data-original="#FFCD38" data-old_color="#FFCD38" fill="#e75b21"/><path d="M402.015 161.296h-20.67a7.64 7.64 0 0 1-7.64-7.64 7.64 7.64 0 0 1 7.64-7.64h20.67a7.64 7.64 0 1 1 0 15.28z" data-original="#EBAF03" data-old_color="#E75B21" fill="#c6501f"/></svg>