<svg xmlns="http://www.w3.org/2000/svg" id="Capa_1" viewBox="0 0 512 512" width="512" height="512"><path d="M472 40h-8V24c0-13.234-10.766-24-24-24s-24 10.766-24 24v16H96V24C96 10.766 85.234 0 72 0S48 10.766 48 24v16h-8C17.944 40 0 57.944 0 80v352c0 22.056 17.944 40 40 40h88a8 8 0 0 0 0-16H40c-13.234 0-24-10.766-24-24V128h384a8 8 0 0 0 0-16H16V80c0-13.234 10.766-24 24-24h8v16c0 13.234 10.766 24 24 24s24-10.766 24-24V56h320v16c0 13.234 10.766 24 24 24s24-10.766 24-24V56h8c13.234 0 24 10.766 24 24v32h-16a8 8 0 0 0 0 16h16v304c0 13.234-10.766 24-24 24h-88.002a8 8 0 0 0 0 16H472c22.056 0 40-17.944 40-40V80c0-22.056-17.944-40-40-40zM80 72c0 4.411-3.589 8-8 8s-8-3.589-8-8V24c0-4.411 3.589-8 8-8s8 3.589 8 8v48zm360 8c-4.411 0-8-3.589-8-8V24c0-4.411 3.589-8 8-8s8 3.589 8 8v23.981l-.001.019.001.019V72c0 4.411-3.589 8-8 8z" data-original="#000000" class="active-path" data-old_color="#ffffff" fill="#fff"/><path d="M448 128a8 8 0 0 0 0-16h-16a8 8 0 0 0 0 16h16zm-200 72h16a8 8 0 0 0 0-16h-16a8 8 0 0 0 0 16zm0 40h16a8 8 0 0 0 0-16h-16a8 8 0 0 0 0 16zm56-40h16a8 8 0 0 0 0-16h-16a8 8 0 0 0 0 16zm0 40h16a8 8 0 0 0 0-16h-16a8 8 0 0 0 0 16zm-112-40h16a8 8 0 0 0 0-16h-16a8 8 0 0 0 0 16zm0 40h16a8 8 0 0 0 0-16h-16a8 8 0 0 0 0 16zm-56-40h16a8 8 0 0 0 0-16h-16a8 8 0 0 0 0 16zm0 40h16a8 8 0 0 0 0-16h-16a8 8 0 0 0 0 16zm0 40h16a8 8 0 0 0 0-16h-16a8 8 0 0 0 0 16zm-5.66 37.66A8.068 8.068 0 0 0 136 320c2.11 0 4.17-.85 5.66-2.34 1.49-1.49 2.34-3.56 2.34-5.66s-.85-4.17-2.34-5.66A8.05 8.05 0 0 0 136 304c-2.11 0-4.17.85-5.66 2.34A8.05 8.05 0 0 0 128 312c0 2.11.85 4.17 2.34 5.66zM360 200h16a8 8 0 0 0 0-16h-16a8 8 0 0 0 0 16zm0 40h16a8 8 0 0 0 0-16h-16a8 8 0 0 0 0 16zm0 40h16a8 8 0 0 0 0-16h-16a8 8 0 0 0 0 16zm10.34 26.34A8.05 8.05 0 0 0 368 312c0 2.11.85 4.17 2.34 5.66A8.05 8.05 0 0 0 376 320c2.11 0 4.17-.85 5.66-2.34A8.068 8.068 0 0 0 384 312c0-2.11-.85-4.17-2.34-5.66A8.068 8.068 0 0 0 376 304c-2.11 0-4.17.85-5.66 2.34zM408 192a8 8 0 0 0 8 8h16a8 8 0 0 0 0-16h-16a8 8 0 0 0-8 8zm8 48h16a8 8 0 0 0 0-16h-16a8 8 0 0 0 0 16zm0 40h16a8 8 0 0 0 0-16h-16a8 8 0 0 0 0 16zm0 40h16a8 8 0 0 0 0-16h-16a8 8 0 0 0 0 16zm0 40h16a8 8 0 0 0 0-16h-16a8 8 0 0 0 0 16zm0 40h16a8 8 0 0 0 0-16h-16a8 8 0 0 0 0 16zM96 184H80a8 8 0 0 0 0 16h16a8 8 0 0 0 0-16zm0 40H80a8 8 0 0 0 0 16h16a8 8 0 0 0 0-16zm0 40H80a8 8 0 0 0 0 16h16a8 8 0 0 0 0-16zm0 40H80a8 8 0 0 0 0 16h16a8 8 0 0 0 0-16zm0 40H80a8 8 0 0 0 0 16h16a8 8 0 0 0 0-16zm0 40H80a8 8 0 0 0 0 16h16a8 8 0 0 0 0-16zm160-112c-66.168 0-120 53.832-120 120s53.832 120 120 120 120-53.832 120-120-53.832-120-120-120zm8 223.695V488a8 8 0 0 0-16 0v7.695c-50.982-3.896-91.799-44.714-95.695-95.695H160a8 8 0 0 0 0-16h-7.695c3.896-50.982 44.714-91.799 95.695-95.695V296a8 8 0 0 0 16 0v-7.695c50.982 3.896 91.799 44.714 95.695 95.695H352a8 8 0 0 0 0 16h7.695c-3.896 50.982-44.713 91.799-95.695 95.695z" data-original="#000000" class="active-path" data-old_color="#ffffff" fill="#fff"/><path d="M320 384h-41.376A24.114 24.114 0 0 0 264 369.376V328a8 8 0 0 0-16 0v41.376c-9.311 3.302-16 12.195-16 22.624 0 13.234 10.766 24 24 24 10.429 0 19.322-6.689 22.624-16H320a8 8 0 0 0 0-16zm-64 16c-4.411 0-8-3.589-8-8s3.589-8 8-8 8 3.589 8 8-3.589 8-8 8z" data-original="#000000" class="active-path" data-old_color="#ffffff" fill="#fff"/></svg>