<svg xmlns="http://www.w3.org/2000/svg" id="Capa_1" viewBox="0 0 512 512" width="512" height="512"><path d="M256 0c-15.737 0-28.495 12.758-28.495 28.495v27.937h56.99V28.495C284.495 12.758 271.737 0 256 0z" data-original="#858384" fill="#858384"/><circle cx="256" cy="20.901" r="6.908" data-original="#BAB8B9" fill="#bab8b9"/><path d="M419.438 56.432H92.562c-18.819 0-34.076 15.256-34.076 34.076v387.415c0 18.819 15.257 34.076 34.076 34.076h326.876c18.819 0 34.076-15.257 34.076-34.076V90.509c.001-18.82-15.256-34.077-34.076-34.077z" data-original="#FF8C57" class="active-path" data-old_color="#e75b21" fill="#e75b21"/><path d="M129.613 61.505v45.803c0 25.431 20.689 46.12 46.119 46.12h160.535c25.431 0 46.12-20.689 46.12-46.12V61.505a46.43 46.43 0 0 0-.285-5.072H129.898a46.43 46.43 0 0 0-.285 5.072z" data-original="#EC6A34" fill="#ec6a34"/><path d="M383.066 105.628H128.934c-11.204 0-20.286 9.083-20.286 20.286v312.199c0 11.204 9.083 20.286 20.286 20.286h254.13c11.204 0 20.286-9.083 20.286-20.286V125.914c.002-11.204-9.081-20.286-20.284-20.286z" data-original="#EFEDEE" fill="#efedee"/><path d="M153.525 210.491a7.727 7.727 0 0 1-7.726-7.727v-16.605a7.726 7.726 0 1 1 15.452 0v4.104l34.571-17.285c3.818-1.908 8.457-.362 10.366 3.455s.362 8.458-3.455 10.366l-45.752 22.876a7.736 7.736 0 0 1-3.456.816zm204.951-11.438H247.653a7.726 7.726 0 1 1 0-15.452h110.822a7.726 7.726 0 0 1 .001 15.452zm-204.951 71.896a7.727 7.727 0 0 1-7.726-7.727v-16.605a7.726 7.726 0 1 1 15.452 0v4.104l34.571-17.285a7.725 7.725 0 0 1 10.366 3.455 7.725 7.725 0 0 1-3.455 10.366l-45.752 22.876a7.723 7.723 0 0 1-3.456.816zm204.951-11.438H247.653a7.726 7.726 0 1 1 0-15.452h110.822a7.726 7.726 0 0 1 .001 15.452zm-204.951 71.896a7.727 7.727 0 0 1-7.726-7.727v-16.605a7.726 7.726 0 1 1 15.452 0v4.104l34.571-17.285a7.725 7.725 0 0 1 10.366 3.455 7.725 7.725 0 0 1-3.455 10.366l-45.752 22.876a7.723 7.723 0 0 1-3.456.816zm204.951-11.438H247.653a7.726 7.726 0 1 1 0-15.452h110.822a7.726 7.726 0 0 1 7.726 7.726 7.724 7.724 0 0 1-7.725 7.726zm-204.951 71.897a7.727 7.727 0 0 1-7.726-7.727v-16.605a7.726 7.726 0 1 1 15.452 0v4.104l34.571-17.285c3.818-1.909 8.457-.362 10.366 3.455s.362 8.458-3.455 10.366l-45.752 22.876a7.736 7.736 0 0 1-3.456.816zm204.951-11.438H247.653a7.726 7.726 0 1 1 0-15.452h110.822a7.726 7.726 0 0 1 7.726 7.726 7.724 7.724 0 0 1-7.725 7.726z" data-original="#3A484A" fill="#3a484a"/><path d="M129.613 105.628v1.68c0 25.431 20.689 46.12 46.119 46.12h160.535c25.431 0 46.12-20.689 46.12-46.12v-1.68H129.613z" data-original="#D4D2D3" fill="#d4d2d3"/><path d="M336.268 41.139H175.732c-11.248 0-20.365 9.118-20.365 20.365v45.803c0 11.248 9.118 20.365 20.365 20.365h160.535c11.247 0 20.365-9.118 20.365-20.365V61.505c0-11.248-9.117-20.366-20.364-20.366z" data-original="#9E9C9D" fill="#9e9c9d"/><path d="M205.858 94.248a7.726 7.726 0 0 1-7.726-7.726v-9.075a7.726 7.726 0 1 1 15.452 0v9.075a7.726 7.726 0 0 1-7.726 7.726zm100.284 0a7.726 7.726 0 0 1-7.726-7.726v-9.075a7.726 7.726 0 1 1 15.452 0v9.075a7.726 7.726 0 0 1-7.726 7.726zM256 99.092c-7.053 0-13.684-2.959-18.193-8.117a7.726 7.726 0 1 1 11.633-10.17c1.575 1.801 3.965 2.834 6.559 2.834 2.594 0 4.984-1.033 6.559-2.834a7.725 7.725 0 0 1 10.902-.732 7.724 7.724 0 0 1 .731 10.902c-4.507 5.158-11.138 8.117-18.191 8.117z" data-original="#3A484A" fill="#3a484a"/></svg>