<svg xmlns="http://www.w3.org/2000/svg" id="Capa_1" viewBox="0 0 512 512" width="512" height="512"><path d="M398.339 393.244h-56.615v-43.391h56.615c17.928 0 34.321-10.539 41.763-26.85l27.32-59.88c2.622-5.746.258-10.483-.88-12.253s-4.467-5.886-10.782-5.886h-99.21v-43.391h99.21c19.214 0 36.889 9.649 47.28 25.812 10.391 16.162 11.834 36.249 3.858 53.729l-27.321 59.881c-14.476 31.727-46.364 52.229-81.238 52.229z" data-original="#404B58" class="active-path" data-old_color="#e75b21" fill="#e75b21"/><path d="M341.724 349.853v43.391h53.138c.263-1.343.5-2.696.68-4.069l5.169-39.408c-.789.041-1.577.087-2.372.087h-56.615v-.001zm14.826-148.261v43.391h57.905l5.691-43.391H356.55z" data-original="#000000" data-old_color="opacity: 0.1#D3501A" opacity=".1" fill="#d3501a"/><path d="M296.904 479.315H98.143c-6.964 0-12.609-5.645-12.609-12.609v-50.204h223.979v50.204c-.001 6.964-5.646 12.609-12.609 12.609z" data-original="#404B58" class="active-path" data-old_color="#e75b21" fill="#e75b21"/><path data-original="#000000" data-old_color="opacity: 0.1#D3501A" opacity=".1" fill="#d3501a" d="M85.53 420.22h223.98v42.773H85.53z"/><path d="M303.393 445.865H91.653c-32.714 0-60.358-24.255-64.612-56.691L.159 184.228c-1.443-10.999 7.119-20.757 18.212-20.757h358.304c11.093 0 19.655 9.758 18.212 20.757l-26.882 204.946c-4.254 32.437-31.898 56.691-64.612 56.691z" data-original="#ED718B" data-old_color="#e75b21" fill="#e75b21"/><path d="M376.675 163.471H18.371c-11.093 0-19.655 9.758-18.212 20.757l2.278 17.364H392.61l2.278-17.364c1.442-10.999-7.12-20.757-18.213-20.757z" data-original="#FBE096" fill="#fbe096"/><path d="M116.377 266.62a7.5 7.5 0 0 1-7.5-7.5v-13.84c0-4.143 3.358-7.5 7.5-7.5s7.5 3.357 7.5 7.5v13.84a7.5 7.5 0 0 1-7.5 7.5zm81.146 26.436c-12.902 0-23.361-10.459-23.361-23.361v-17.113a6.233 6.233 0 0 1 6.233-6.233h34.256a6.233 6.233 0 0 1 6.233 6.233v17.113c0 12.902-10.459 23.361-23.361 23.361zm81.146-26.436a7.5 7.5 0 0 1-7.5-7.5v-13.84c0-4.143 3.358-7.5 7.5-7.5s7.5 3.357 7.5 7.5v13.84a7.5 7.5 0 0 1-7.5 7.5z" data-original="#404B58" class="active-path" data-old_color="#e75b21" fill="#e75b21"/><path d="M23.647 363.299l3.394 25.875c4.254 32.436 31.898 56.691 64.612 56.691h211.74c32.714 0 60.358-24.254 64.612-56.691l11.408-86.971c-107.451 91.319-199.698 12.078-355.766 61.096z" data-original="#000000" data-old_color="opacity: 0.1#D3501A" opacity=".1" fill="#d3501a"/><path d="M376.675 163.471h-39.707c11.093 0 19.655 9.758 18.212 20.757l-26.882 204.946c-4.255 32.436-31.898 56.691-64.612 56.691h39.707c32.714 0 60.358-24.255 64.612-56.691l26.882-204.946c1.443-10.999-7.119-20.757-18.212-20.757z" data-original="#000000" data-old_color="opacity: 0.1#D3501A" opacity=".1" fill="#d3501a"/><path d="M128.853 144.717a7.489 7.489 0 0 1-6.126-3.166 7.499 7.499 0 0 1 1.785-10.455c5.961-4.223 9.38-10.833 9.379-18.138 0-7.305-3.418-13.915-9.379-18.137-9.983-7.071-15.709-18.145-15.709-30.378s5.726-23.307 15.709-30.378a7.5 7.5 0 1 1 8.671 12.24c-5.961 4.223-9.379 10.833-9.379 18.138.001 7.305 3.419 13.915 9.379 18.137 9.983 7.071 15.709 18.144 15.709 30.378s-5.726 23.307-15.709 30.378a7.474 7.474 0 0 1-4.33 1.381zm68.676 0a7.5 7.5 0 0 1-4.342-13.621c5.961-4.223 9.38-10.833 9.379-18.138 0-7.305-3.419-13.915-9.379-18.137-9.983-7.071-15.709-18.145-15.709-30.378s5.726-23.307 15.708-30.378a7.5 7.5 0 1 1 8.671 12.24c-5.961 4.223-9.379 10.833-9.379 18.138.001 7.305 3.419 13.915 9.379 18.137 9.983 7.071 15.709 18.144 15.709 30.378s-5.726 23.307-15.709 30.378a7.464 7.464 0 0 1-4.328 1.381zm68.677 0a7.489 7.489 0 0 1-6.126-3.166 7.499 7.499 0 0 1 1.785-10.455c5.961-4.223 9.38-10.833 9.379-18.138 0-7.305-3.418-13.915-9.379-18.137-9.983-7.071-15.709-18.145-15.709-30.378s5.726-23.307 15.708-30.378a7.5 7.5 0 0 1 8.671 12.24c-5.961 4.223-9.379 10.833-9.379 18.138s3.419 13.915 9.379 18.137c9.983 7.071 15.709 18.144 15.709 30.378s-5.726 23.307-15.708 30.378a7.477 7.477 0 0 1-4.33 1.381z" data-original="#E5E5E5" fill="#e5e5e5"/></svg>