<svg xmlns="http://www.w3.org/2000/svg" id="Capa_1" viewBox="0 0 512 512" width="512" height="512"><path d="M368.33 374.657c-54.286 0-98.295 44.008-98.295 98.295v29.157h34.055l7.726-3.905 7.726 3.905h27.089l21.699-14.226 21.699 14.226h27.089l5.452-3.905 10 3.905h34.055v-29.157c0-54.286-44.009-98.295-98.295-98.295z" data-original="#DA5B65" data-old_color="#e75b21" fill="#e75b21"/><path d="M143.67 374.657c-54.286 0-98.295 44.008-98.295 98.295v29.157h34.056l5.408-6.198 10.044 6.198h27.089l21.699-14.226 21.699 14.226h27.089l7.726-6.198 7.726 6.198h34.056v-29.157c-.003-54.286-44.011-98.295-98.297-98.295z" data-original="#EFEDEE" fill="#efedee"/><path d="M79.43 502.109v-44.986c0-4.267 3.458-7.726 7.726-7.726s7.726 3.459 7.726 7.726v44.986H79.43zm113.026 0v-44.986a7.725 7.725 0 0 1 7.726-7.726 7.725 7.725 0 0 1 7.726 7.726v44.986h-15.452z" data-original="#D4D2D3" fill="#d4d2d3"/><path data-original="#00A5C6" data-old_color="#e75b21" fill="#e75b21" d="M121.97 502.109l6.202-46.558h30.995l6.202 46.558z"/><path d="M121.97 407.985v32.385c0 11.984 9.715 21.699 21.699 21.699 11.984 0 21.699-9.715 21.699-21.699v-32.385H121.97z" data-original="#49C3E0" class="active-path" data-old_color="#E75B21" fill="#efedee"/><path d="M304.09 502.109v-44.986a7.725 7.725 0 0 1 7.726-7.726 7.725 7.725 0 0 1 7.726 7.726v44.986H304.09zm113.027 0v-44.986a7.725 7.725 0 0 1 7.726-7.726 7.725 7.725 0 0 1 7.726 7.726v44.986h-15.452z" data-original="#C0344A" data-old_color="#B74617" fill="#c54b18"/><path data-original="#D4D2D3" fill="#d4d2d3" d="M346.631 502.109l6.201-46.558h30.996l6.201 46.558z"/><path d="M346.631 407.985v32.385c0 11.984 9.715 21.699 21.699 21.699 11.984 0 21.699-9.715 21.699-21.699v-32.385h-43.398z" data-original="#EFEDEE" fill="#efedee"/><path d="M231.87 319.242c0-72.802 61.215-132.03 136.461-132.03 75.244 0 136.46 59.228 136.46 132.03H231.87z" data-original="#C76D5F" fill="#c76d5f"/><path d="M368.33 187.212c-7.002 0-13.883.515-20.604 1.504 65.503 9.639 115.856 64.5 115.856 130.526h41.207c.002-72.802-61.215-132.03-136.459-132.03z" data-original="#AF4E42" fill="#af4e42"/><path d="M253.46 318.718c.233-48.114 50.424-80.226 94.244-60.356 3.31 1.501 6.31 3.061 8.932 4.544a23.742 23.742 0 0 0 23.39 0 112.97 112.97 0 0 1 8.933-4.544c43.82-19.87 94.011 12.243 94.244 60.356l.001.523c0 60.995-51.43 110.442-114.872 110.442S253.46 380.236 253.46 319.241a30.392 30.392 0 0 1 0-.523z" data-original="#FFC4B0" fill="#ffc4b0"/><path d="M483.203 290.445c-2.104 0-4.152.232-6.128.659-13.041-28.011-44.924-44.448-76.172-36.864 28.337 6.846 51.235 32.018 51.393 64.478l.001.524c0 55.956-43.286 102.187-99.42 109.444 5.055.653 10.211.998 15.453.998 53.18 0 97.911-34.746 110.995-81.912 1.269.171 2.562.268 3.878.268 15.904 0 28.797-12.893 28.797-28.798 0-15.904-12.893-28.797-28.797-28.797z" data-original="#E6B09C" fill="#e6b09c"/><path d="M269.444 319.242H7.209c0-72.802 21.588-132.03 136.461-132.03 79.188 0 115.089-14.238 115.089-14.238s36.976 78.203 10.685 146.268z" data-original="#333E40" fill="#333e40"/><path d="M48.416 319.242c0-57.921 11.679-107.898 63.549-130.291C24.712 199.197 7.209 253.716 7.209 319.242h41.207z" data-original="#283234" fill="#283234"/><circle cx="258.545" cy="319.243" r="28.798" data-original="#E6B09C" fill="#e6b09c"/><path d="M28.799 318.718c.233-48.114 50.424-80.226 94.244-60.356 3.31 1.501 6.31 3.061 8.932 4.544a23.742 23.742 0 0 0 23.39 0 112.97 112.97 0 0 1 8.933-4.544c43.82-19.87 94.011 12.243 94.244 60.356l.001.523c0 60.995-51.43 110.442-114.872 110.442S28.798 380.238 28.798 319.242l.001-.524z" data-original="#FFC4B0" fill="#ffc4b0"/><path d="M59.702 319.242l.001-.524c.157-32.46 23.054-57.632 51.393-64.478-31.247-7.585-63.132 8.853-76.172 36.864a28.836 28.836 0 0 0-6.128-.659C12.893 290.445 0 303.338 0 319.242s12.893 28.798 28.797 28.798c1.316 0 2.608-.097 3.878-.268 13.082 47.166 57.815 81.912 110.995 81.912 5.241 0 10.398-.344 15.453-.998-56.135-7.258-99.421-53.488-99.421-109.444z" data-original="#E6B09C" fill="#e6b09c"/><path d="M424.435 331.645a7.725 7.725 0 0 1-7.726-7.726v-9.249a7.725 7.725 0 0 1 7.726-7.726 7.725 7.725 0 0 1 7.726 7.726v9.249a7.725 7.725 0 0 1-7.726 7.726zm-111.26 0a7.725 7.725 0 0 1-7.726-7.726v-9.249a7.725 7.725 0 0 1 7.726-7.726 7.725 7.725 0 0 1 7.726 7.726v9.249a7.725 7.725 0 0 1-7.726 7.726zm55.156 6.835c-8.269 0-16.038-3.461-21.314-9.497a7.726 7.726 0 1 1 11.633-10.171c2.342 2.678 5.87 4.215 9.681 4.215 3.811 0 7.338-1.536 9.68-4.214a7.724 7.724 0 0 1 10.902-.732 7.725 7.725 0 0 1 .733 10.902c-5.276 6.035-13.046 9.497-21.315 9.497z" data-original="#3A484A" fill="#3a484a"/><path d="M73.59 9.891h101.702c31.955 0 57.859 25.905 57.859 57.859 0 31.955-25.905 57.859-57.859 57.859h-25.663l13.494 30.538c1.901 4.3-3.001 8.412-6.905 5.795l-54.189-36.332H73.59c-31.955 0-57.859-25.905-57.859-57.859 0-31.956 25.904-57.86 57.859-57.86z" data-original="#3AC7B4" data-old_color="#E75B21" fill="#efedee"/><path d="M438.41 9.891H336.708c-31.955 0-57.859 25.905-57.859 57.859 0 31.955 25.905 57.859 57.859 57.859h25.663l-13.494 30.538c-1.901 4.3 3.001 8.412 6.905 5.795l54.189-36.332h28.44c31.955 0 57.859-25.905 57.859-57.859-.001-31.956-25.905-57.86-57.86-57.86z" data-original="#49C3E0" class="active-path" data-old_color="#E75B21" fill="#efedee"/><path d="M200.885 331.645a7.725 7.725 0 0 1-7.726-7.726v-9.249a7.725 7.725 0 0 1 7.726-7.726 7.725 7.725 0 0 1 7.726 7.726v9.249a7.725 7.725 0 0 1-7.726 7.726zm-112.289 0a7.725 7.725 0 0 1-7.726-7.726v-9.249a7.725 7.725 0 0 1 7.726-7.726 7.725 7.725 0 0 1 7.726 7.726v9.249a7.725 7.725 0 0 1-7.726 7.726zm55.074 6.835c-8.269 0-16.038-3.461-21.314-9.497a7.726 7.726 0 1 1 11.633-10.171c2.342 2.678 5.87 4.215 9.681 4.215 3.811 0 7.339-1.537 9.681-4.215a7.724 7.724 0 0 1 10.902-.731 7.725 7.725 0 0 1 .731 10.902c-5.276 6.036-13.045 9.497-21.314 9.497z" data-original="#3A484A" fill="#3a484a"/></svg>