<svg xmlns="http://www.w3.org/2000/svg" id="Capa_1" viewBox="0 0 512 512" width="512" height="512"><path d="M57.106 26.325c-35.099 35.099-35.099 92.007 0 127.106 60.598 60.598 141.545 84.638 176.645 49.538 35.099-35.099 11.06-116.047-49.538-176.645-35.1-35.099-92.008-35.099-127.107.001z" data-original="#56B4DD" fill="#56b4dd"/><path d="M180.201 95.068c-25.054-25.054-65.675-25.054-90.729 0-21.424 21.424-24.511 54.224-9.295 78.946 50.48 40.092 108.429 56.165 142.26 37.44 13.937-28.25-3.871-78.022-42.236-116.386z" data-original="#000000" opacity=".1"/><path d="M244.605 123.323H37.22c4.387 10.959 11.01 21.232 19.885 30.108 60.598 60.598 141.545 84.638 176.645 49.538 17.711-17.71 20.357-47.095 10.855-79.646z" data-original="#000000" opacity=".1"/><path d="M454.894 26.325c35.099 35.099 35.099 92.007 0 127.106-60.598 60.598-141.545 84.638-176.645 49.538C243.15 167.87 267.19 86.923 327.788 26.325c35.099-35.1 92.007-35.1 127.106 0z" data-original="#56B4DD" fill="#56b4dd"/><path d="M331.799 95.068c25.054-25.054 65.675-25.054 90.729 0 21.424 21.424 24.511 54.224 9.295 78.946-50.48 40.092-108.429 56.165-142.26 37.44-13.937-28.25 3.871-78.022 42.236-116.386z" data-original="#000000" opacity=".1"/><path d="M267.395 123.323H474.78c-4.387 10.959-11.009 21.232-19.885 30.108-60.598 60.598-141.545 84.638-176.645 49.538-17.711-17.71-20.357-47.095-10.855-79.646z" data-original="#000000" opacity=".1"/><path d="M482.941 239.554H29.059c-13.186 0-23.875-10.689-23.875-23.875v-46.174c0-13.186 10.689-23.875 23.875-23.875h453.882c13.186 0 23.875 10.689 23.875 23.875v46.174c0 13.185-10.689 23.875-23.875 23.875z" data-original="#F3DE6A" class="active-path" data-old_color="#e75b21" fill="#e75b21"/><path data-original="#56B4DD" fill="#56b4dd" d="M207.06 145.63h97.89v93.92h-97.89z"/><path data-original="#FFFFFF" opacity=".2" fill="#fff" d="M207.06 145.63h97.89v93.92h-97.89z"/><path d="M54.917 215.678v-46.174c0-13.186 10.689-23.875 23.875-23.875H29.059c-13.186 0-23.875 10.689-23.875 23.875v46.174c0 13.186 10.689 23.875 23.875 23.875h49.733c-13.186.001-23.875-10.689-23.875-23.875z" data-original="#000000" opacity=".1"/><path d="M474.8 239.554H37.2v248.115C37.2 501.107 48.093 512 61.531 512h388.938c13.438 0 24.331-10.893 24.331-24.331V239.554z" data-original="#F5A85B" data-old_color="#e75b21" fill="#e75b21"/><path d="M158.213 347.916c-10.752-4.831-27.795-11.183-47.891-13.983-2.799-20.096-9.152-37.139-13.982-47.891-2.39-5.319-9.957-5.319-12.347 0-4.831 10.752-11.183 27.795-13.983 47.891-12.341 1.719-23.522 4.779-32.811 8.003v24.307c9.288 3.224 20.47 6.284 32.811 8.003 2.799 20.095 9.152 37.138 13.983 47.89 2.39 5.319 9.957 5.319 12.347 0 4.831-10.752 11.183-27.795 13.982-47.89 20.096-2.799 37.139-9.152 47.891-13.983 5.32-2.39 5.32-9.957 0-12.347zm297.051 35.132c-2.799-20.095-9.152-37.139-13.983-47.891-2.39-5.319-9.957-5.319-12.347 0-4.831 10.752-11.183 27.795-13.983 47.891-20.095 2.799-37.139 9.152-47.891 13.983-5.319 2.39-5.32 9.957 0 12.347 10.752 4.831 27.795 11.184 47.891 13.983 2.799 20.095 9.152 37.138 13.983 47.891 2.39 5.319 9.957 5.319 12.347 0 4.831-10.752 11.183-27.795 13.983-47.891 6.922-.964 13.47-2.355 19.536-3.956v-32.401c-6.065-1.601-12.614-2.992-19.536-3.956zm-40.243-137.321c2.66-1.195 3.989-3.684 3.989-6.174H274.937c0 2.489 1.33 4.979 3.99 6.174 10.752 4.831 27.795 11.184 47.891 13.983 2.799 20.095 9.152 37.138 13.982 47.89 2.39 5.319 9.957 5.319 12.347 0 4.831-10.752 11.183-27.795 13.983-47.89 20.095-2.799 37.138-9.152 47.891-13.983z" data-original="#FFFFFF" opacity=".4" fill="#fff"/><path data-original="#56B4DD" fill="#56b4dd" d="M207.06 239.55h97.89V512h-97.89z"/><path d="M474.8 292.1v-52.546H37.2v248.115C37.2 501.107 48.093 512 61.531 512h40.794c-13.438 0-24.331-10.893-24.331-24.331V292.1H474.8z" data-original="#000000" opacity=".1"/><path d="M170.034 199.653a7.5 7.5 0 0 1-7.5-7.5v-14.27a7.5 7.5 0 0 1 15 0v14.27a7.5 7.5 0 0 1-7.5 7.5zm171.932 0a7.5 7.5 0 0 1-7.5-7.5v-14.27c0-4.142 3.357-7.5 7.5-7.5s7.5 3.358 7.5 7.5v14.27a7.5 7.5 0 0 1-7.5 7.5zM256 210.611a37.563 37.563 0 0 1-28.319-12.897 7.5 7.5 0 0 1 11.309-9.855 22.565 22.565 0 0 0 17.01 7.753 22.564 22.564 0 0 0 17.01-7.752 7.501 7.501 0 0 1 11.309 9.855A37.566 37.566 0 0 1 256 210.611z" data-original="#4A5058" fill="#4a5058"/></svg>