<svg xmlns="http://www.w3.org/2000/svg" id="Capa_1" viewBox="0 0 511.998 511.998" width="512" height="512"><path data-original="#EFEDEE" fill="#efedee" d="M376.118 332.642l-79.014 16.868v65.806l79.014 25.888 79.013-25.888V349.51z"/><path data-original="#D4D2D3" fill="#d4d2d3" d="M333.615 349.512h-36.511v65.804l36.511 11.963z"/><path data-original="#DA5B65" data-old_color="#DA5B65" fill="#e75b21" d="M297.102 415.317h158.03v96.095h-158.03z"/><path data-original="#C0344A" data-old_color="#E75B21" fill="#c94e1c" d="M297.102 415.317h36.512v96.095h-36.512z"/><circle cx="415.665" cy="382.413" r="12.059" data-original="#3A484A" fill="#3a484a"/><path data-original="#EFEDEE" fill="#efedee" d="M135.877 332.642l79.014 16.868v65.806l-79.014 25.888-79.014-25.888V349.51z"/><circle cx="96.33" cy="382.413" r="12.059" data-original="#3A484A" fill="#3a484a"/><path data-original="#49C3E0" class="active-path" data-old_color="#49C3E0" fill="#e75b21" d="M56.863 415.317h158.03v96.095H56.863z"/><path d="M508.805 235.289c-5.945-9.148-18.181-11.744-27.328-5.799l-26.343 17.12v-70.612c0-10.91-8.844-19.754-19.754-19.754-10.91 0-19.754 8.844-19.754 19.754 0-10.91-8.844-19.754-19.754-19.754-10.91 0-19.754 8.844-19.754 19.754 0-10.91-8.844-19.754-19.754-19.754-10.91 0-19.754 8.844-19.754 19.754 0-10.91-8.844-19.754-19.754-19.754-10.91 0-19.754 8.844-19.754 19.754v173.511h158.033v-55.78l47.871-31.111c9.147-5.946 11.744-18.181 5.799-27.329zm-313.666-79.046c-10.91 0-19.754 8.844-19.754 19.754 0-10.91-8.844-19.754-19.754-19.754-10.91 0-19.754 8.844-19.754 19.754 0-10.91-8.844-19.754-19.754-19.754-10.91 0-19.754 8.844-19.754 19.754 0-10.91-8.844-19.754-19.754-19.754-10.91 0-19.754 8.844-19.754 19.754v70.612l-26.343-17.12c-9.148-5.945-21.382-3.348-27.328 5.799-5.945 9.148-3.349 21.382 5.799 27.328l47.871 31.111v55.78h158.03v-173.51c.003-10.909-8.841-19.754-19.751-19.754z" data-original="#FFC4B0" fill="#ffc4b0"/><path d="M249.018 56.286a7.725 7.725 0 0 1-7.726-7.726V8.311a7.725 7.725 0 0 1 7.726-7.726 7.725 7.725 0 0 1 7.726 7.726V48.56a7.726 7.726 0 0 1-7.726 7.726zm81.997 11.034a7.687 7.687 0 0 1-3.69-.944 7.725 7.725 0 0 1-3.087-10.481l19.257-35.341a7.727 7.727 0 0 1 13.569 7.394l-19.257 35.341a7.727 7.727 0 0 1-6.792 4.031zm64.114 33.501a7.726 7.726 0 0 1-4.627-13.92l32.261-24.065a7.727 7.727 0 0 1 9.24 12.386l-32.261 24.065a7.693 7.693 0 0 1-4.613 1.534zM167.021 67.32a7.727 7.727 0 0 1-6.792-4.031l-19.258-35.341a7.727 7.727 0 0 1 13.569-7.394l19.258 35.341a7.727 7.727 0 0 1-6.777 11.425zm-64.114 33.501c-1.607 0-3.228-.5-4.614-1.534l-32.26-24.065a7.726 7.726 0 1 1 9.24-12.386l32.26 24.065a7.726 7.726 0 0 1-4.626 13.92z" data-original="#FFCD38" fill="#ffcd38"/><path data-original="#D4D2D3" fill="#d4d2d3" d="M214.893 349.512h-36.51v65.804l36.51 11.963z"/><path data-original="#00A5C6" data-old_color="#E75B21" fill="#c94e1c" d="M178.384 415.317h36.512v96.095h-36.512z"/><path d="M195.139 156.243c-7.078 0-13.269 3.734-16.757 9.329v183.936h36.511V175.997c0-10.909-8.844-19.754-19.754-19.754zm121.719 0c7.078 0 13.269 3.734 16.757 9.329v183.936h-36.512V175.997c.001-10.909 8.845-19.754 19.755-19.754z" data-original="#E6B09C" fill="#e6b09c"/></svg>