<svg xmlns="http://www.w3.org/2000/svg" id="Capa_1" viewBox="0 0 512.001 512.001" width="512" height="512"><path d="M325.015 11.634H117.847l-37.674 90.41L0 129.481V455.51c0 24.778 20.079 44.857 44.857 44.857h280.158c24.778 0 44.857-20.079 44.857-44.857V56.491c0-24.778-20.079-44.857-44.857-44.857z" data-original="#EFEDEE" fill="#efedee"/><path d="M0 129.481h88.431c16.246 0 29.416-13.17 29.416-29.416V11.634L0 129.481z" data-original="#D4D2D3" fill="#d4d2d3"/><path d="M318.805 86.404H166.527a7.726 7.726 0 1 1 0-15.452h152.278a7.726 7.726 0 1 1 0 15.452z" data-original="#465059" fill="#465059"/><path d="M369.872 144.971c-20.05-9.127-41.996-13.941-64.684-13.941-41.727 0-80.957 16.249-110.463 45.755-60.909 60.909-60.909 160.016 0 220.925 29.505 29.505 68.735 45.755 110.462 45.755 22.689 0 44.635-4.815 64.684-13.942V144.971h.001z" data-original="#D4D2D3" fill="#d4d2d3"/><path d="M241.665 209.524H50.516a7.726 7.726 0 1 1 0-15.452h191.149a7.726 7.726 0 1 1 0 15.452zm0 54.203H50.516a7.726 7.726 0 1 1 0-15.452h191.149a7.726 7.726 0 1 1 0 15.452zm0 54.203H50.516a7.726 7.726 0 1 1 0-15.452h191.149a7.726 7.726 0 1 1 0 15.452zm0 54.204H50.516a7.726 7.726 0 1 1 0-15.452h191.149a7.726 7.726 0 1 1 0 15.452zm183.653 3.074c61.879 26.1 111.028 68.677 73.768 105.938s-79.838-11.889-105.938-73.768l32.17-32.17z" data-original="#465059" fill="#465059"/><ellipse transform="rotate(-134.999 393.792 375.857)" cx="393.791" cy="375.854" rx="27.46" ry="37.514" data-original="#BAB8B9" fill="#bab8b9"/><path d="M241.665 194.071h-61.871a154.796 154.796 0 0 0-10.124 15.453h71.994c4.267 0 7.726-3.459 7.726-7.726s-3.458-7.727-7.725-7.727zm0 54.203h-87.71a156.87 156.87 0 0 0-3.138 15.453h90.848a7.726 7.726 0 0 0 7.726-7.726 7.726 7.726 0 0 0-7.726-7.727zm0 54.203h-91.882a157.261 157.261 0 0 0 2.285 15.453h89.596a7.726 7.726 0 0 0 7.726-7.726 7.725 7.725 0 0 0-7.725-7.727zm0 54.204h-76.427a155.068 155.068 0 0 0 8.8 15.453h67.627a7.726 7.726 0 0 0 7.726-7.726 7.726 7.726 0 0 0-7.726-7.727z" data-original="#3C474D" fill="#3c474d"/><circle cx="305.191" cy="287.246" r="125.311" data-original="#DA5B65" data-old_color="#e75b21" fill="#e75b21"/><circle cx="305.191" cy="287.246" r="86.71" data-original="#51D7F7" data-old_color="#51D7F7" fill="#efedee"/><path d="M264.476 338.259c-33.863-33.863-33.863-88.767 0-122.63a87.079 87.079 0 0 1 12.62-10.426c-12.138 4.145-23.542 11.047-33.223 20.728-33.863 33.863-33.863 88.767 0 122.63 29.923 29.923 76.264 33.385 110.01 10.426-30.317 10.356-65.224 3.454-89.407-20.728z" data-original="#49C3E0" class="active-path" data-old_color="#49C3E0" fill="#d4d2d3"/><path d="M272.167 330.903a7.7 7.7 0 0 1-5.463-2.263l-6.24-6.24a7.726 7.726 0 0 1 10.926-10.926l6.24 6.24a7.726 7.726 0 0 1-5.463 13.189zm68.951-68.951a7.7 7.7 0 0 1-5.463-2.263l-6.24-6.24a7.726 7.726 0 0 1 10.926-10.926l6.24 6.24a7.726 7.726 0 0 1-5.463 13.189zm-42.414 42.584c-.507 0-1.015-.016-1.524-.051a7.726 7.726 0 0 1-7.191-8.227 7.72 7.72 0 0 1 8.227-7.191c2.252.153 4.551-.759 6.292-2.499 1.74-1.74 2.651-4.033 2.499-6.292a7.726 7.726 0 1 1 15.418-1.036c.451 6.709-2.096 13.362-6.99 18.255-4.521 4.523-10.548 7.041-16.731 7.041z" data-original="#3A484A" fill="#3a484a"/><path d="M318.805 457.387H207.928a7.726 7.726 0 1 1 0-15.452h110.877a7.726 7.726 0 1 1 0 15.452z" data-original="#465059" fill="#465059"/></svg>