<svg xmlns="http://www.w3.org/2000/svg" id="Capa_1" viewBox="0 0 512 512" width="512" height="512"><path d="M313.746 394.105l110.769 40.317c17.439 6.347 36.721-2.644 43.069-20.083l40.316-110.77c6.347-17.439-2.644-36.721-20.083-43.069l-110.769-40.317c-17.439-6.347-36.721 2.644-43.069 20.083l-40.317 110.769c-6.347 17.44 2.645 36.723 20.084 43.07z" data-original="#FDA75F" fill="#fda75f"/><path d="M377.048 220.184c-17.439-6.347-36.721 2.645-43.069 20.084l-40.317 110.769c-6.347 17.439 2.644 36.721 20.083 43.069l110.769 40.316c12.038 4.381 24.951 1.452 33.885-6.517V285.643a33.398 33.398 0 0 0 9.184-13.542l6.095-16.746-96.63-35.171z" data-original="#000000" opacity=".1"/><path d="M309.739 223.6l110.769 40.317c17.439 6.347 36.721-2.644 43.069-20.083l40.317-110.769c6.347-17.439-2.644-36.721-20.083-43.069l-110.77-40.317c-17.439-6.347-36.721 2.644-43.069 20.083l-40.317 110.769c-6.347 17.439 2.645 36.721 20.084 43.069z" data-original="#FBE096" fill="#fbe096"/><path d="M373.041 49.679c-17.439-6.347-36.721 2.644-43.069 20.083l-40.317 110.769c-6.347 17.439 2.644 36.721 20.083 43.068l110.769 40.317c12.037 4.381 24.951 1.452 33.885-6.517V79.288l-81.351-29.609z" data-original="#000000" opacity=".1"/><path d="M366.934 512H28.294c-14.486 0-26.23-11.743-26.23-26.23V26.23C2.064 11.743 13.808 0 28.294 0h338.64c35.368 0 64.04 28.672 64.04 64.04v383.92c0 35.368-28.672 64.04-64.04 64.04z" data-original="#ED718B" class="active-path" data-old_color="#ED718B" fill="#e75b21"/><path data-original="#000000" opacity=".1" d="M2.064 196.84h428.91v180.63H2.064z"/><path data-original="#000000" opacity=".1" d="M304.67 0h59.12v512h-59.12z"/><path data-original="#404B58" fill="#404b58" d="M287.62 0h62.12v512h-62.12z"/><path d="M28.294 0C13.808 0 2.064 11.743 2.064 26.23v459.54c0 14.486 11.743 26.23 26.23 26.23H49V0H28.294z" data-original="#000000" opacity=".1"/><path d="M98.763 286.043a7.5 7.5 0 0 1-7.5-7.5v-11.862c0-4.143 3.358-7.5 7.5-7.5s7.5 3.357 7.5 7.5v11.862a7.5 7.5 0 0 1-7.5 7.5zm69.547 21.585c-11.058 0-20.022-8.964-20.022-20.022v-14.667a5.342 5.342 0 0 1 5.342-5.342h29.36a5.342 5.342 0 0 1 5.342 5.342v14.667c0 11.058-8.964 20.022-20.022 20.022zm69.547-21.585a7.5 7.5 0 0 1-7.5-7.5v-11.862c0-4.143 3.358-7.5 7.5-7.5s7.5 3.357 7.5 7.5v11.862a7.5 7.5 0 0 1-7.5 7.5z" data-original="#404B58" fill="#404b58"/></svg>