<svg xmlns="http://www.w3.org/2000/svg" id="Capa_1" viewBox="0 0 512 512" width="512" height="512"><path d="M256 188.507a7.725 7.725 0 0 1-7.726-7.726V54.486A7.725 7.725 0 0 1 256 46.76a7.725 7.725 0 0 1 7.726 7.726V180.78a7.726 7.726 0 0 1-7.726 7.727zm53.189 22.031a7.727 7.727 0 0 1-5.464-13.19l89.303-89.303a7.727 7.727 0 0 1 10.927 10.927l-89.303 89.303a7.704 7.704 0 0 1-5.463 2.263zm148.325 53.188H331.221a7.725 7.725 0 0 1-7.726-7.726 7.725 7.725 0 0 1 7.726-7.726h126.293A7.725 7.725 0 0 1 465.24 256a7.725 7.725 0 0 1-7.726 7.726zm-59.022 142.492a7.702 7.702 0 0 1-5.464-2.263l-89.303-89.303a7.727 7.727 0 0 1 10.927-10.927l89.303 89.303a7.727 7.727 0 0 1-5.463 13.19zM256 465.24a7.725 7.725 0 0 1-7.726-7.726V331.221a7.725 7.725 0 0 1 7.726-7.726 7.725 7.725 0 0 1 7.726 7.726v126.293A7.725 7.725 0 0 1 256 465.24zm-142.492-59.022a7.727 7.727 0 0 1-5.464-13.19l89.303-89.303a7.727 7.727 0 0 1 10.927 10.927l-89.303 89.303a7.701 7.701 0 0 1-5.463 2.263zm67.271-142.492H54.486A7.725 7.725 0 0 1 46.76 256a7.725 7.725 0 0 1 7.726-7.726H180.78a7.725 7.725 0 0 1 7.726 7.726 7.726 7.726 0 0 1-7.727 7.726zm22.032-53.188a7.702 7.702 0 0 1-5.464-2.263l-89.303-89.303a7.727 7.727 0 0 1 10.927-10.927l89.303 89.303a7.727 7.727 0 0 1-5.463 13.19z" data-original="#3A484A" fill="#3a484a"/><circle cx="256" cy="54.486" r="54.486" data-original="#49C3E0" fill="#49c3e0"/><path d="M276.604 88.368c-30.092 0-54.486-24.395-54.486-54.486a54.21 54.21 0 0 1 7.064-26.819c-16.515 9.36-27.668 27.084-27.668 47.422 0 30.092 24.395 54.486 54.486 54.486 20.339 0 38.062-11.153 47.422-27.667a54.21 54.21 0 0 1-26.818 7.064z" data-original="#00A5C6" fill="#00a5c6"/><circle cx="398.495" cy="113.505" r="54.486" data-original="#FFCD38" data-old_color="#FFCD38" fill="#e75b21"/><path d="M380.568 131.432c-17.709-17.708-20.664-44.568-8.898-65.349a54.464 54.464 0 0 0-11.706 8.898c-21.278 21.278-21.278 55.777 0 77.054 21.278 21.278 55.776 21.278 77.054 0a54.496 54.496 0 0 0 8.898-11.706c-20.78 11.767-47.639 8.811-65.348-8.897z" data-original="#E7B835" data-old_color="#E75B21" fill="#d1511d"/><circle cx="457.514" cy="256" r="54.486" data-original="#FF9AC8" fill="#ff9ac8"/><path d="M478.117 289.883c-30.092 0-54.486-24.395-54.486-54.486a54.21 54.21 0 0 1 7.064-26.819c-16.515 9.36-27.668 27.084-27.668 47.422 0 30.092 24.395 54.486 54.486 54.486 20.339 0 38.062-11.153 47.422-27.667a54.212 54.212 0 0 1-26.818 7.064z" data-original="#E86FA8" fill="#e86fa8"/><circle cx="398.495" cy="398.495" r="54.486" data-original="#FF8C57" data-old_color="#FF8C57" fill="#e75b21"/><path d="M380.568 416.416c-17.709-17.708-20.664-44.568-8.898-65.349a54.529 54.529 0 0 0-11.706 8.898c-21.278 21.278-21.278 55.777 0 77.054 21.278 21.278 55.776 21.278 77.054 0a54.496 54.496 0 0 0 8.898-11.706c-20.78 11.767-47.639 8.811-65.348-8.897z" data-original="#EC6A34" data-old_color="#E75B21" fill="#d1511d"/><circle cx="256" cy="457.514" r="54.486" data-original="#3AC7B4" fill="#3ac7b4"/><path d="M276.604 491.396c-30.092 0-54.486-24.395-54.486-54.486a54.21 54.21 0 0 1 7.064-26.819c-16.515 9.36-27.668 27.084-27.668 47.422C201.514 487.605 225.908 512 256 512c20.339 0 38.062-11.152 47.422-27.667a54.209 54.209 0 0 1-26.818 7.063z" data-original="#00AD94" fill="#00ad94"/><circle cx="113.505" cy="398.495" r="54.486" data-original="#B9A8FF" fill="#b9a8ff"/><path d="M95.584 416.416c-17.709-17.708-20.664-44.568-8.898-65.349a54.529 54.529 0 0 0-11.706 8.898c-21.278 21.278-21.278 55.777 0 77.054 21.278 21.278 55.777 21.278 77.054 0a54.496 54.496 0 0 0 8.898-11.706c-20.78 11.767-47.639 8.811-65.348-8.897z" data-original="#A394E0" fill="#a394e0"/><circle cx="54.486" cy="256" r="54.486" data-original="#FFC4B0" data-old_color="#FFC4B0" fill="#e75b21"/><path d="M75.09 289.883c-30.092 0-54.486-24.395-54.486-54.486a54.21 54.21 0 0 1 7.064-26.819C11.152 217.938 0 235.661 0 256c0 30.092 24.394 54.486 54.486 54.486 20.339 0 38.062-11.152 47.422-27.667a54.217 54.217 0 0 1-26.818 7.064z" data-original="#E6B09C" class="active-path" data-old_color="#E6B09C" fill="#d1511d"/><circle cx="113.505" cy="113.505" r="54.486" data-original="#EFEDEE" fill="#efedee"/><path d="M95.584 131.432c-17.709-17.708-20.664-44.568-8.898-65.349a54.464 54.464 0 0 0-11.706 8.898c-21.278 21.278-21.278 55.777 0 77.054 21.278 21.278 55.777 21.278 77.054 0a54.496 54.496 0 0 0 8.898-11.706c-20.78 11.767-47.639 8.811-65.348-8.897z" data-original="#D4D2D3" fill="#d4d2d3"/><circle cx="256" cy="256" r="95.848" data-original="#DA5B65" data-old_color="#DA5B65" fill="#e75b21"/><path d="M271.453 337.429c-52.937 0-95.851-42.914-95.851-95.851 0-23.859 8.719-45.679 23.143-62.455-23.426 17.475-38.596 45.404-38.596 76.877 0 52.937 42.914 95.851 95.851 95.851 29.079 0 55.13-12.951 72.708-33.396-15.976 11.918-35.791 18.974-57.255 18.974z" data-original="#C0344A" data-old_color="#E75B21" fill="#cc4f1c"/><path d="M209.921 265.67a7.725 7.725 0 0 1-7.726-7.726v-8.339c0-4.267 3.458-7.726 7.726-7.726s7.726 3.459 7.726 7.726v8.339a7.726 7.726 0 0 1-7.726 7.726zm92.158 0a7.725 7.725 0 0 1-7.726-7.726v-8.339a7.725 7.725 0 0 1 7.726-7.726 7.725 7.725 0 0 1 7.726 7.726v8.339a7.725 7.725 0 0 1-7.726 7.726zM256 270.122c-6.663 0-12.929-2.797-17.192-7.674a7.727 7.727 0 0 1 11.636-10.17c1.327 1.518 3.352 2.39 5.556 2.39s4.228-.872 5.556-2.39a7.725 7.725 0 0 1 10.902-.732 7.725 7.725 0 0 1 .733 10.902c-4.262 4.877-10.528 7.674-17.191 7.674z" data-original="#3A484A" fill="#3a484a"/></svg>