<svg xmlns="http://www.w3.org/2000/svg" id="Capa_1" viewBox="0 0 512 512" width="512" height="512"><path d="M256 483.341a7.725 7.725 0 0 1-7.726-7.726v-87.624a7.725 7.725 0 0 1 7.726-7.726 7.725 7.725 0 0 1 7.726 7.726v87.624a7.726 7.726 0 0 1-7.726 7.726z" data-original="#3A484A" fill="#3a484a"/><path d="M256 0c-16.024 0-29.015 12.991-29.015 29.015V84.79h58.031V29.015C285.015 12.991 272.024 0 256 0z" data-original="#00A5C6" class="active-path" data-old_color="#00A5C6" fill="#e75b21"/><path data-original="#EFEDEE" fill="#efedee" d="M28.439 104.574v311.955h455.122V104.574L256 75.694z"/><path data-original="#D4D2D3" fill="#d4d2d3" d="M28.439 104.574v30.905h455.122v-30.905L256 75.695z"/><path d="M483.561 46.813H28.439c-9.249 0-16.748 7.498-16.748 16.748v24.266c0 9.249 7.498 16.748 16.748 16.748h455.122c9.249 0 16.748-7.498 16.748-16.748V63.561c-.002-9.249-7.499-16.748-16.748-16.748z" data-original="#49C3E0" data-old_color="#49C3E0" fill="#e75b21"/><path d="M95.735 328.002a7.727 7.727 0 0 1-5.151-13.489l106.846-95.47a7.725 7.725 0 0 1 9.649-.518l101.35 72.641 102.214-108.61a7.728 7.728 0 0 1 11.254 10.59L315.049 306.681a7.726 7.726 0 0 1-10.128.985l-101.813-72.973-102.229 91.344a7.697 7.697 0 0 1-5.144 1.965z" data-original="#3A484A" fill="#3a484a"/><circle cx="256" cy="486.204" r="25.796" data-original="#49C3E0" data-old_color="#49C3E0" fill="#e75b21"/><path d="M266.302 501.698c-14.245 0-25.793-11.547-25.793-25.793 0-4.473 1.14-8.68 3.143-12.348-8.011 4.377-13.445 12.877-13.445 22.65C230.207 500.453 241.756 512 256 512c9.771 0 18.272-5.434 22.65-13.445a25.675 25.675 0 0 1-12.348 3.143z" data-original="#00A5C6" class="active-path" data-old_color="#00A5C6" fill="#e75b21"/><circle cx="95.735" cy="320.273" r="30.829" data-original="#49C3E0" data-old_color="#49C3E0" fill="#e75b21"/><circle cx="202.575" cy="224.806" r="30.829" data-original="#DA5B65" data-old_color="#DA5B65" fill="#e75b21"/><circle cx="309.425" cy="301.39" r="30.829" data-original="#FFCD38" data-old_color="#FFCD38" fill="#e75b21"/><circle cx="416.265" cy="187.854" r="30.829" data-original="#3AC7B4" data-old_color="#3AC7B4" fill="#e75b21"/></svg>