<svg xmlns="http://www.w3.org/2000/svg" id="Capa_1" viewBox="0 0 512 512" width="512" height="512"><path d="M493.663 203.803h-232.29c-10.127 0-18.337-8.21-18.337-18.337V37.957c0-10.127 8.21-18.337 18.337-18.337h232.29C503.79 19.62 512 27.83 512 37.957v147.51c0 10.126-8.21 18.336-18.337 18.336z" data-original="#E8E8E8" fill="#e8e8e8"/><path d="M346.716 77.482H294.52c-4.142 0-7.5-3.357-7.5-7.5s3.358-7.5 7.5-7.5h52.196c4.142 0 7.5 3.357 7.5 7.5s-3.358 7.5-7.5 7.5zm0 28.248H294.52c-4.142 0-7.5-3.357-7.5-7.5s3.358-7.5 7.5-7.5h52.196c4.142 0 7.5 3.357 7.5 7.5s-3.358 7.5-7.5 7.5zm0 28.249H294.52a7.5 7.5 0 0 1-7.5-7.5 7.5 7.5 0 0 1 7.5-7.5h52.196a7.5 7.5 0 0 1 0 15z" data-original="#404B58" fill="#404b58"/><path d="M404.403 126.479h55.977c8.635 0 15.635-7 15.635-15.635V85.617c0-8.635-7-15.635-15.635-15.635h-55.977c-8.635 0-15.635 7-15.635 15.635v25.227c.001 8.635 7.001 15.635 15.635 15.635z" data-original="#FDA75F" data-old_color="#e75b21" fill="#e75b21"/><path d="M298.012 166.377c-12.687 0-22.972 10.285-22.972 22.972 0 5.48 1.926 10.506 5.128 14.455h35.688a22.869 22.869 0 0 0 5.128-14.455c0-12.688-10.285-22.972-22.972-22.972z" data-original="#79C6E4" fill="#79c6e4"/><path d="M377.518 166.377c-12.687 0-22.972 10.285-22.972 22.972 0 5.48 1.926 10.506 5.128 14.455h35.688a22.869 22.869 0 0 0 5.128-14.455c0-12.688-10.285-22.972-22.972-22.972z" data-original="#ED718B" class="active-path" data-old_color="#E75B21" fill="#ffe000"/><path d="M457.024 166.377c-12.687 0-22.972 10.285-22.972 22.972 0 5.48 1.926 10.506 5.128 14.455h35.688a22.869 22.869 0 0 0 5.128-14.455c0-12.688-10.285-22.972-22.972-22.972z" data-original="#FFFFFF" fill="#fff"/><path d="M462.626 492.38H115.665c-12.466 0-22.571-10.105-22.571-22.571V245.898h392.103v223.911c0 12.466-10.106 22.571-22.571 22.571z" data-original="#E8E8E8" fill="#e8e8e8"/><path d="M335.047 355.672h68.379c10.548 0 19.099-8.551 19.099-19.099v-30.816c0-10.548-8.551-19.099-19.099-19.099h-68.379c-10.548 0-19.099 8.551-19.099 19.099v30.816c.001 10.548 8.552 19.099 19.099 19.099z" data-original="#FDA75F" data-old_color="#e75b21" fill="#e75b21"/><path d="M248.041 294.158h-92.276c-4.142 0-7.5-3.357-7.5-7.5s3.358-7.5 7.5-7.5h92.276c4.142 0 7.5 3.357 7.5 7.5s-3.358 7.5-7.5 7.5zm0 34.507h-92.276c-4.142 0-7.5-3.357-7.5-7.5s3.358-7.5 7.5-7.5h92.276c4.142 0 7.5 3.357 7.5 7.5s-3.358 7.5-7.5 7.5zm0 34.507h-92.276c-4.142 0-7.5-3.357-7.5-7.5s3.358-7.5 7.5-7.5h92.276c4.142 0 7.5 3.357 7.5 7.5s-3.358 7.5-7.5 7.5z" data-original="#404B58" fill="#404b58"/><circle cx="186.98" cy="428.67" r="29.52" data-original="#79C6E4" fill="#79c6e4"/><circle cx="289.14" cy="428.67" r="29.52" data-original="#ED718B" class="active-path" data-old_color="#E75B21" fill="#ffe000"/><circle cx="391.31" cy="428.67" r="29.52" data-original="#FFFFFF" fill="#fff"/><path data-original="#000000" data-old_color="opacity: 0.1#000000" opacity=".1" d="M93.09 245.9h392.1V265H93.09z"/><path d="M462.626 195.161H115.665c-12.466 0-22.571 10.105-22.571 22.571v28.166h392.103v-28.166c0-12.465-10.106-22.571-22.571-22.571z" data-original="#404B58" fill="#404b58"/><path d="M115.665 195.161c-12.466 0-22.571 10.105-22.571 22.571v211.345h93.522c11.132 0 20.157-9.025 20.157-20.157V195.161h-91.108z" data-original="#000000" data-old_color="opacity: 0.1#000000" opacity=".1"/><path d="M166.03 408.492H20.157C9.025 408.492 0 399.468 0 388.335V107.91c0-11.132 9.025-20.157 20.157-20.157H166.03c11.132 0 20.157 9.025 20.157 20.157v280.425c0 11.133-9.024 20.157-20.157 20.157z" data-original="#E8E8E8" fill="#e8e8e8"/><path d="M130.197 226.102H55.99a7.5 7.5 0 0 1 0-15h74.208a7.5 7.5 0 1 1-.001 15zm0 34.507H55.99c-4.142 0-7.5-3.357-7.5-7.5s3.358-7.5 7.5-7.5h74.208a7.5 7.5 0 1 1-.001 15zm0 34.507H55.99c-4.142 0-7.5-3.357-7.5-7.5s3.358-7.5 7.5-7.5h74.208a7.5 7.5 0 1 1-.001 15z" data-original="#404B58" fill="#404b58"/><path d="M58.904 186.981h68.379c10.548 0 19.099-8.551 19.099-19.099v-30.816c0-10.548-8.551-19.099-19.099-19.099H58.904c-10.548 0-19.099 8.551-19.099 19.099v30.816c0 10.548 8.551 19.099 19.099 19.099z" data-original="#FDA75F" data-old_color="#e75b21" fill="#e75b21"/><circle cx="97.64" cy="348.76" r="29.52" data-original="#79C6E4" fill="#79c6e4"/></svg>