<svg xmlns="http://www.w3.org/2000/svg" id="Capa_1" viewBox="0 0 512 512" width="512" height="512"><path d="M408.735 143.265a217.93 217.93 0 0 0-37.003-29.729l14.438-25.008 16.143 9.32a7.998 7.998 0 0 0 10.929-2.928 8 8 0 0 0-2.928-10.928l-45.883-26.49a8 8 0 0 0-8 13.856l15.883 9.17-14.387 24.919C329.238 90.054 297.277 81.365 264 80.161v-.966c18.236-3.716 32-19.878 32-39.195 0-22.056-17.944-40-40-40s-40 17.944-40 40c0 19.316 13.764 35.479 32 39.195v.966c-54.694 1.979-105.83 24.199-144.735 63.104C62.468 184.063 40 238.305 40 296s22.468 111.938 63.265 152.735C144.062 489.532 198.304 512 256 512s111.938-22.468 152.735-63.265C449.532 407.938 472 353.695 472 296s-22.468-111.937-63.265-152.735zM232 40c0-13.233 10.767-24 24-24s24 10.767 24 24c0 10.429-6.689 19.321-16 22.624V40a8 8 0 0 0-16 0v22.624c-9.311-3.303-16-12.195-16-22.624zm24 456c-110.28 0-200-89.72-200-200S145.72 96 256 96s200 89.72 200 200-89.72 200-200 200z" data-original="#000000" class="active-path" data-old_color="#ffffff" fill="#fff"/><path d="M412.772 199.628a7.998 7.998 0 0 0-11.007-2.616 8 8 0 0 0-2.616 11.007C415.407 234.412 424 264.835 424 296c0 92.636-75.364 168-168 168S88 388.636 88 296s75.364-168 168-168c31.154 0 61.567 8.587 87.953 24.834a7.999 7.999 0 0 0 11.006-2.618 8 8 0 0 0-2.618-11.007C323.433 121.409 290.118 112 256 112c-101.458 0-184 82.542-184 184s82.542 184 184 184 184-82.542 184-184c0-34.13-9.416-67.455-27.228-96.372z" data-original="#000000" class="active-path" data-old_color="#ffffff" fill="#fff"/><path d="M367.995 170.772a170.054 170.054 0 0 1 13.229 13.229 7.978 7.978 0 0 0 5.964 2.665 8 8 0 0 0 5.958-13.335 185.768 185.768 0 0 0-14.481-14.48 7.998 7.998 0 0 0-11.296.626 7.997 7.997 0 0 0 .626 11.295zm-62.06-18.336C290.287 146.978 273.486 144 256 144a8 8 0 0 0-8 8v144c0 2.122.843 4.156 2.343 5.657L352.167 403.48c1.562 1.562 3.609 2.343 5.657 2.343s4.095-.781 5.657-2.343C392.189 374.771 408 336.601 408 296c0-12.752-1.587-25.139-4.559-36.983a7.819 7.819 0 0 0-.242-.985 151.01 151.01 0 0 0-13.929-35.062 7.907 7.907 0 0 0-.831-1.485 152.831 152.831 0 0 0-20.273-27.956 8.078 8.078 0 0 0-.778-.918 7.719 7.719 0 0 0-.488-.44c-16.381-17.486-36.835-31.107-59.836-39.336a7.93 7.93 0 0 0-1.129-.399zM323 177.686l-59 59v-25.372l41.846-41.847A135.483 135.483 0 0 1 323 177.686zm27.448 20.553L264 284.686v-25.372l72.705-72.705a137.004 137.004 0 0 1 13.743 11.63zm21.403 26.596L284 312.686 271.314 300l89.979-89.978a136.658 136.658 0 0 1 10.558 14.813zm14.76 33.241L308 336.687 295.314 324l84.418-84.418a134.98 134.98 0 0 1 6.879 18.494zM392 296c0 1.597-.036 3.188-.091 4.776L332 360.686 319.314 348l71.313-71.313A136.578 136.578 0 0 1 392 296zM288.701 163.984L264 188.686v-28.454a135.432 135.432 0 0 1 24.701 3.752zm68.96 222.363L343.314 372l45.205-45.205c-5.071 22.015-15.582 42.408-30.858 59.552z" data-original="#000000" class="active-path" data-old_color="#ffffff" fill="#fff"/></svg>