<svg xmlns="http://www.w3.org/2000/svg" id="Capa_1" viewBox="0 0 512.001 512.001" width="512" height="512"><path d="M380.466 165.198c-2.013-6.004-8.565-9.143-14.53-7.018-14.815 5.28-48.278 10.393-109.938-11.6-89.334-31.865-138.269 46.089-126.314 102.941l18.525 19.662 8.225 10.351 6.023-10.351h190.167l7.523 6.245 3.639-6.245 18.525-19.662c8.993-40.509 3.176-69.352-1.845-84.323z" data-original="#C76D5F" fill="#c76d5f"/><path data-original="#AF4E42" d="M360.15 275.43l3.639-6.245h-11.163zm-230.464-25.907c-10.628-50.541 26.867-117.751 98.086-109.666-53.68 6.469-82.09 59.404-76.509 103.195l-21.577 6.471z" fill="#af4e42"/><path d="M497.207 241.207h-22.15c-3.508-53.077-25.843-102.496-63.806-140.458-37.962-37.962-87.381-60.298-140.457-63.806V14.794C270.792 6.624 264.169.001 256 .001s-14.793 6.623-14.793 14.793v22.15c-53.077 3.508-102.496 25.843-140.458 63.806-37.962 37.962-60.298 87.381-63.806 140.458h-22.15C6.623 241.207 0 247.83 0 256.001c0 8.17 6.623 14.793 14.793 14.793h22.15c3.508 53.077 25.843 102.495 63.806 140.457 37.962 37.963 87.381 60.299 140.458 63.806v22.15c0 8.17 6.623 14.793 14.793 14.793 8.17 0 14.793-6.623 14.793-14.793v-22.15c53.077-3.508 102.495-25.843 140.457-63.806 37.963-37.962 60.299-87.381 63.806-140.457h22.15c8.17 0 14.793-6.623 14.793-14.793.002-8.171-6.622-14.794-14.792-14.794zM270.792 445.399v-21.077c0-8.17-6.623-14.793-14.793-14.793s-14.793 6.623-14.793 14.793v21.076C148.225 438.203 73.795 363.774 66.6 270.792h21.076c8.17 0 14.793-6.623 14.793-14.793 0-8.17-6.623-14.793-14.793-14.793H66.607c7.196-92.979 81.618-167.41 174.599-174.604v21.076c0 8.17 6.623 14.793 14.793 14.793s14.793-6.623 14.793-14.793V66.602c92.981 7.195 167.403 81.625 174.599 174.606h-21.07c-8.17 0-14.793 6.623-14.793 14.793s6.623 14.793 14.793 14.793h21.076c-7.193 92.981-81.623 167.411-174.605 174.605z" data-original="#DA5B65" class="active-path" data-old_color="#D1511D" fill="#e75b21"/><path d="M363.789 269.185s-34.641 11.346-25.42-66.835c0 0-35.682 6.806-82.369 6.806s-82.369-6.806-82.369-6.806c9.221 78.181-25.42 66.835-25.42 66.835l-7.743 12.115 11.382 14.656c12.276 44.258 54.249 76.861 104.15 76.861s91.875-32.604 104.15-76.861l12.796-11.398-9.157-15.373z" data-original="#FFC4B0" fill="#ffc4b0"/><path d="M203.976 281.3a7.726 7.726 0 0 1-7.726-7.726v-8.678a7.726 7.726 0 1 1 15.452 0v8.678a7.727 7.727 0 0 1-7.726 7.726zm106.109 0a7.726 7.726 0 0 1-7.726-7.726v-8.678a7.726 7.726 0 1 1 15.452 0v8.678a7.727 7.727 0 0 1-7.726 7.726zM256 287.714c-7.897 0-15.319-3.308-20.359-9.076a7.726 7.726 0 0 1 11.634-10.17c2.107 2.41 5.287 3.792 8.725 3.792 3.438 0 6.618-1.383 8.725-3.792a7.724 7.724 0 0 1 10.902-.731 7.724 7.724 0 0 1 .731 10.902c-5.04 5.767-12.462 9.075-20.358 9.075z" data-original="#3A484A" fill="#3a484a"/><path d="M171.261 289.128a115.78 115.78 0 0 1-4.148-27.117c-7.949 10.762-18.903 7.174-18.903 7.174 0-9.258 1.27-18.23 3.639-26.77a27.12 27.12 0 0 0-3.639-.25c-14.923 0-27.022 12.097-27.022 27.022s12.098 27.022 27.022 27.022c1.235 0 2.448-.091 3.639-.25 12.191 43.953 53.677 76.395 103.123 76.84-40.795-12.127-72.655-43.813-83.711-83.671zm192.528-46.965c-1.235 0-2.448.091-3.639.25 2.369 8.54 3.639 17.512 3.639 26.77s-1.27 18.23-3.639 26.77c1.191.161 2.404.25 3.639.25 14.923 0 27.022-12.097 27.022-27.022 0-14.919-12.099-27.018-27.022-27.018z" data-original="#E6B09C" fill="#e6b09c"/></svg>