<svg xmlns="http://www.w3.org/2000/svg" id="Capa_1" viewBox="0 0 512 512" width="512" height="512"><path d="M488.305 60.095H23.695C10.609 60.095 0 70.704 0 83.79v344.42c0 13.086 10.609 23.695 23.695 23.695h464.61c13.086 0 23.695-10.609 23.695-23.695V83.79c0-13.086-10.609-23.695-23.695-23.695z" data-original="#3C474D" fill="#3c474d"/><path data-original="#FF8C57" data-old_color="#FF8C57" fill="#e75b21" d="M44.992 109.468h422.014v293.066H44.992z"/><circle cx="62.408" cy="427.217" r="9.661" data-original="#3AC7B4" fill="#3ac7b4"/><path d="M382.423 260.663c0-67.446-56.712-122.318-126.423-122.318-69.709 0-126.423 54.872-126.423 122.318v86.404c0 15.909 12.897 28.806 28.806 28.806h195.234c15.909 0 28.806-12.897 28.806-28.806v-86.404z" data-original="#C76D5F" fill="#c76d5f"/><path d="M160.483 347.067v-86.404c0-62.386 48.523-114.007 110.97-121.403a131.12 131.12 0 0 0-15.453-.915c-69.709 0-126.423 54.872-126.423 122.318v86.404c0 15.909 12.897 28.806 28.806 28.806h30.905c-15.909 0-28.805-12.896-28.805-28.806z" data-original="#AF4E42" fill="#af4e42"/><circle cx="362.428" cy="260.667" r="26.679" data-original="#E6B09C" fill="#e6b09c"/><path d="M308.697 349.574h-30.946L256 376.054l14.358 26.48h68.155c-.001-37.693-29.816-52.96-29.816-52.96zm-74.448 0h-30.946s-29.817 15.267-29.817 52.96h68.155l14.358-26.48-21.75-26.48z" data-original="#DA5B65" class="active-path" data-old_color="#FBF3EE" fill="#fdf6f1"/><path d="M277.751 349.574s3.489 34.115-7.394 52.96h-28.715c-10.883-18.844-7.394-52.96-7.394-52.96h43.503z" data-original="#EFEDEE" fill="#efedee"/><path d="M362.422 260.178c-.215-44.574-46.716-74.324-87.312-55.916a105.16 105.16 0 0 0-8.275 4.209 21.996 21.996 0 0 1-21.67 0 104.478 104.478 0 0 0-8.275-4.209c-40.596-18.408-87.096 11.342-87.312 55.916l-.001.485c0 56.509 47.647 102.319 106.423 102.319s106.423-45.809 106.423-102.319l-.001-.485z" data-original="#FFC4B0" fill="#ffc4b0"/><path d="M170.181 260.663l.001-.485c.152-31.599 23.566-55.741 51.647-60.565-27.683-4.783-55.131 10.287-66.622 35.124-1.609-.488-3.468-.753-5.63-.753-14.735 0-26.679 11.945-26.679 26.679 0 14.734 11.945 26.679 26.679 26.679 1.301 0 2.49-.098 3.584-.277 12.11 43.711 53.559 75.915 102.838 75.915 3.476 0 6.911-.166 10.302-.479-53.94-4.981-96.12-48.671-96.12-101.838z" data-original="#E6B09C" fill="#e6b09c"/><path d="M208.654 272.722a7.726 7.726 0 0 1-7.726-7.726v-8.569a7.726 7.726 0 1 1 15.452 0v8.569a7.725 7.725 0 0 1-7.726 7.726zm94.691 0a7.726 7.726 0 0 1-7.726-7.726v-8.569a7.726 7.726 0 1 1 15.452 0v8.569a7.725 7.725 0 0 1-7.726 7.726zM256 279.055c-7.825 0-15.179-3.278-20.175-8.993a7.726 7.726 0 1 1 11.634-10.17c2.061 2.358 5.174 3.711 8.54 3.711 3.367 0 6.479-1.353 8.541-3.711a7.726 7.726 0 1 1 11.633 10.171c-4.995 5.714-12.348 8.992-20.173 8.992z" data-original="#3A484A" fill="#3a484a"/></svg>