<svg xmlns="http://www.w3.org/2000/svg" id="Capa_1" viewBox="0 0 497.706 497.706" width="512" height="512"><path d="M181.78 319.736h-31.037S63.29 379.463 75.98 497.705h44.76l7.511-7.038 7.511 7.038h46.019l67.073-94.289-67.074-83.68z" data-original="#46505A" fill="#46505a"/><path d="M346.963 319.736h-31.037l-67.073 83.68 67.073 94.289h46.019l7.511-9.042 7.511 9.042h44.76c12.688-118.243-74.764-177.969-74.764-177.969z" data-original="#46505A" fill="#46505a"/><path d="M120.739 497.705v-68.823c0-4.149 3.363-7.511 7.511-7.511s7.511 3.362 7.511 7.511v68.823h-15.022zm241.205.001v-68.824a7.51 7.51 0 0 1 7.511-7.511 7.51 7.51 0 0 1 7.511 7.511v68.824h-15.022z" data-original="#3D474E" fill="#3d474e"/><path data-original="#EEECED" fill="#eeeced" d="M181.78 319.736v177.969h41.036l26.037-21.531 26.037 21.531h41.036V319.736z"/><path data-original="#BB3649" data-old_color="#e75b21" fill="#e75b21" d="M274.89 497.705l-8.265-72.89h-35.544l-8.265 72.89z"/><path d="M248.853 0C135.811 0 42.617 83.317 32.049 189.499l23.173 50.299h393.557l16.878-50.298C455.088 83.317 361.895 0 248.853 0z" data-original="#924436" fill="#924436"/><path d="M214.08 2.682C117.208 17.706 41.511 94.433 32.049 189.499l19.345 41.99C62.918 132.03 125.908 47.324 214.08 2.682z" data-original="#7D3A2E" fill="#7d3a2e"/><path d="M271.96 411.339l-5.511-38.08h-35.091l-5.613 38.08a12.01 12.01 0 0 0 5.335 13.474l11.534 7.011a12.014 12.014 0 0 0 12.477 0l11.534-7.011a12.009 12.009 0 0 0 5.335-13.474z" data-original="#D55C64" data-old_color="#e75b21" fill="#e75b21"/><path d="M451.83 243.316l-12.795-21.785-.175.18-1.598-.631s-58.949-14.878-58.949-83.386c0 0-54.63 14.02-129.459 14.02-74.83 0-129.459-14.02-129.459-14.02 0 68.508-58.949 83.386-58.949 83.386l-1.607.621-.166-.171-12.795 21.785 20.723 19.787v-.001c23.873 74.662 96.431 128.964 182.253 128.964 85.827 0 158.381-54.307 182.25-128.974l.004.012 20.722-19.787z" data-original="#FBC4AC" fill="#fbc4ac"/><path d="M153.699 247.988h-29.605a7.511 7.511 0 0 0 0 15.022h29.605a7.511 7.511 0 0 0 0-15.022z" data-original="#FF8087" class="active-path" data-old_color="#FF8087" fill="#e3b098"/><path d="M138.896 232.564a7.511 7.511 0 0 0 7.511-7.511v-22.024a7.511 7.511 0 0 0-15.022 0v22.024a7.51 7.51 0 0 0 7.511 7.511zm219.921 0a7.511 7.511 0 0 0 7.511-7.511v-22.024a7.511 7.511 0 0 0-15.022 0v22.024a7.51 7.51 0 0 0 7.511 7.511z" data-original="#3A484A" fill="#3a484a"/><path d="M373.612 247.988h-29.605a7.511 7.511 0 0 0 0 15.022h29.605a7.511 7.511 0 0 0 0-15.022z" data-original="#FF8087" class="active-path" data-old_color="#FF8087" fill="#e3b098"/><path d="M248.853 284.255c47.303 27.011 63.026 3.668 63.026 3.668-26.011-4.002 0-64.027-63.026-46.814-63.026-17.212-37.015 42.813-63.026 46.814 0 .001 15.723 23.344 63.026-3.668z" data-original="#C36E5C" fill="#c36e5c"/><path d="M440.652 178.754c1.308 21.835-1.625 42.778-1.625 42.778a174.806 174.806 0 0 1-7.928 41.57c2.013.292 4.069.453 6.162.453 23.457 0 42.474-19.016 42.474-42.473.001-22.316-17.212-40.598-39.083-42.328zM97.295 233.172v.002a256.218 256.218 0 0 1-7.272-28.183c-14.772 12.351-29.578 16.091-29.578 16.091l-1.607.621-.166-.171.007-.002c-.007-.051-2.931-20.967-1.625-42.775-21.87 1.729-39.082 20.012-39.082 42.327 0 23.457 19.016 42.473 42.474 42.473 2.091 0 4.145-.159 6.155-.452v-.001c22.587 70.639 88.756 123.043 168.506 128.486-65.561-32.707-115.823-89.646-137.812-158.416z" data-original="#E3B098" fill="#e3b098"/></svg>