<svg xmlns="http://www.w3.org/2000/svg" id="Capa_1" viewBox="0 0 512 512" width="512" height="512"><path d="M356.928 328.919H155.073S65.108 390.361 78.163 512h46.046l7.726-8.137 7.726 8.137h89.555L256 489.851 282.785 512h89.555l7.726-7.622 7.726 7.622h46.046c13.055-121.639-76.91-183.081-76.91-183.081z" data-original="#EEECED" fill="#eeeced"/><path d="M124.208 512v-70.801a7.725 7.725 0 0 1 7.726-7.726 7.725 7.725 0 0 1 7.726 7.726V512h-15.452zm248.132 0v-70.801a7.725 7.725 0 0 1 7.726-7.726 7.725 7.725 0 0 1 7.726 7.726V512H372.34z" data-original="#D3D1D2" fill="#d3d1d2"/><path data-original="#BB3649" data-old_color="#e75b21" fill="#e75b21" d="M282.785 512l-8.502-74.984h-36.566L229.215 512z"/><path d="M279.77 423.155l-5.669-39.174h-36.099l-5.774 39.174a12.355 12.355 0 0 0 5.488 13.861l11.866 7.212a12.358 12.358 0 0 0 12.835 0l11.866-7.212a12.355 12.355 0 0 0 5.487-13.861z" data-original="#D55C64" data-old_color="#e75b21" fill="#e75b21"/><path d="M200.027 363.482l-25.095 23.095 13.943 31.471c4.132 9.326 16.19 11.855 23.722 4.977l22.707-20.741-35.277-38.802zm111.946 0l25.095 23.095-13.944 31.471c-4.132 9.326-16.19 11.855-23.722 4.977l-22.707-20.741 35.278-38.802z" data-original="#FFFCFD" fill="#fffcfd"/><path d="M474.021 59.649c-1.874-10.116-10.719-17.457-21.007-17.346C400.304 42.867 366.346 0 256 0 132.447 0 31.93 96.748 31.93 215.667l30.006 26.788 194.117 30.033 192.959-23.806 20.757-33.014c16.359-67.715 9.631-126.991 4.252-156.019z" data-original="#343E40" fill="#343e40"/><path d="M74.643 235.27c0-121.253 93.834-221.365 213.892-233.93C278.466.483 267.664 0 256 0 132.447 0 31.93 96.748 31.93 215.667l30.006 26.788 24.802 3.837-12.095-11.022z" data-original="#293234" fill="#293234"/><path d="M451.642 227.949l-.008.006v-.001l-1.813-.523s-60.643-15.305-60.643-85.781c0 0-56.199 14.423-133.178 14.423S122.822 141.65 122.822 141.65c0 70.476-60.643 85.781-60.643 85.781l-1.808.698-6.496 21.265 14.637 21.265v-.001C93.07 347.463 167.712 403.325 256 403.325s162.925-55.863 187.483-132.669l19.89-16.872-11.731-25.835z" data-original="#FBC4AC" fill="#fbc4ac"/><path d="M279.596 260.291a7.727 7.727 0 0 0-10.809 1.602c-3.05 4.111-7.71 6.469-12.784 6.469-5.074 0-9.734-2.358-12.784-6.469a7.727 7.727 0 0 0-12.411 9.207c5.906 7.962 15.325 12.716 25.194 12.716s19.288-4.753 25.194-12.716a7.723 7.723 0 0 0-1.6-10.809z" data-original="#3A484A" fill="#3a484a"/><path d="M158.113 268.362h-30.455a7.726 7.726 0 1 0 0 15.452h30.455a7.726 7.726 0 1 0 0-15.452z" data-original="#FF8087" class="active-path" data-old_color="#FF8087" fill="#e3b098"/><path d="M142.885 252.495a7.726 7.726 0 0 0 7.726-7.726v-22.657a7.726 7.726 0 1 0-15.452 0v22.657a7.726 7.726 0 0 0 7.726 7.726zm226.237 0a7.726 7.726 0 0 0 7.726-7.726v-22.657a7.726 7.726 0 1 0-15.452 0v22.657a7.726 7.726 0 0 0 7.726 7.726z" data-original="#3A484A" fill="#3a484a"/><path d="M384.343 268.362h-30.455a7.726 7.726 0 1 0 0 15.452h30.455a7.726 7.726 0 1 0 0-15.452z" data-original="#FF8087" class="active-path" data-old_color="#FF8087" fill="#e3b098"/><path d="M451.583 228.69a179.857 179.857 0 0 1-8.102 41.97c2.071.301 4.186.466 6.34.466 24.131 0 43.694-19.562 43.694-43.694 0-22.566-17.108-41.133-39.061-43.447-.252 21.917-2.811 43.965-2.811 43.965l-.06.74zm-391.225-.741s-2.558-22.047-2.811-43.965c-21.954 2.314-39.061 20.881-39.061 43.447 0 24.131 19.562 43.694 43.694 43.694 2.151 0 4.264-.164 6.331-.465v-.001C91.41 342.275 157.854 395.672 238.3 402.563c-68.966-31.898-122.041-90.313-144.778-161.419v.001a255.344 255.344 0 0 1-6.782-25.769c-13.015 9.14-24.562 12.055-24.562 12.055l-1.806.697-.014-.179z" data-original="#E3B098" fill="#e3b098"/></svg>